<svg xmlns="http://www.w3.org/2000/svg" xmlns:xlink="http://www.w3.org/1999/xlink"><symbol id="icon-detective"><path d="M15.77 8.217a.594.594 0 00-.592.596c0 .33.265.596.592.596a.594.594 0 00.592-.596.594.594 0 00-.592-.596z"/><path d="M29.148 11.794h-2.303C25.63 8.302 23.869 2.18 20.677.448c-1.596-.866-3.105-.261-3.672.967a1.34 1.34 0 01-1.235.796 1.34 1.34 0 01-1.236-.796C13.987.23 12.514-.43 10.974.322c-3.242 1.586-5.056 7.954-6.28 11.472H2.391c-.981 0-1.776.8-1.776 1.788 0 .986.797 1.789 1.776 1.789h26.757c.981 0 1.776-.8 1.776-1.789 0-.986-.797-1.788-1.776-1.788zM6.774 9.409h6.628a.594.594 0 00.592-.596.594.594 0 00-.592-.596H7.188c1.784-4.964 3.451-6.406 4.303-6.823.93-.454 1.694-.074 1.97.524a2.522 2.522 0 002.309 1.486c.978 0 1.875-.549 2.308-1.486.284-.615 1.053-.955 2.037-.42.856.464 2.518 1.954 4.236 6.72h-6.214a.594.594 0 00-.591.595c0 .33.265.596.591.596h6.628l.825 2.385H5.95l.825-2.385zm22.374 4.77H2.391a.595.595 0 01-.592-.597c0-.329.265-.596.592-.596h26.757c.326 0 .592.268.592.596a.594.594 0 01-.592.596zM14.586 17.755H5.114a.594.594 0 00-.592.596v2.385c0 2.958 2.39 5.365 5.328 5.365a5.317 5.317 0 004.98-3.456 2.257 2.257 0 011.88 0 5.317 5.317 0 004.98 3.456c2.937 0 5.327-2.407 5.327-5.365V18.35a.594.594 0 00-.592-.596h-9.471a.594.594 0 00-.592.596v.596h-1.184v-.596a.594.594 0 00-.592-.596zM9.85 24.91c-2.285 0-4.144-1.872-4.144-4.173v-1.788h8.288v1.788c0 2.307-1.85 4.173-4.144 4.173zm7.696-5.961h8.287v1.788c0 2.3-1.859 4.173-4.143 4.173-2.301 0-4.144-1.872-4.144-4.173v-1.788zm-1.184 1.192v.596c0 .19.01.38.03.569a3.441 3.441 0 00-1.245 0c.02-.189.03-.379.03-.57v-.595h1.185z"/><path d="M9.85 22.524c-.98 0-1.776-.802-1.776-1.788a.594.594 0 00-.592-.596.594.594 0 00-.592.596c0 1.643 1.328 2.98 2.96 2.98a.594.594 0 00.592-.596.594.594 0 00-.592-.596zM21.69 23.716c1.632 0 2.96-1.337 2.96-2.98a.594.594 0 00-.592-.596.594.594 0 00-.593.596c0 .986-.796 1.788-1.775 1.788a.594.594 0 00-.592.596c0 .33.265.596.592.596z"/></symbol><symbol id="icon-facebook"><path fill-rule="evenodd" clip-rule="evenodd" d="M27 13.5C27 6.045 20.956 0 13.5 0S0 6.045 0 13.5C0 20.956 6.044 27 13.5 27S27 20.956 27 13.5zM16.884 9.294h-1.74c-.469 0-.798.397-.798.891v.775h2.485l-.402 2.517h-2.083v6.747h-2.543v-6.747h-1.688V10.96h1.688V9.677h.004c.045-1.463.553-2.856 3.031-2.944v-.01h2.046v2.571z" fill="#CDCDCD"/></symbol><symbol id="icon-hired"><path d="M28.555 26.192c.34-.477.54-1.062.54-1.694v-3.776a.624.624 0 00-.619-.629h-2.768c-1.28 0-2.322 1.057-2.322 2.355v2.05c0 .632.201 1.216.54 1.693a3.95 3.95 0 00-1.21.409 5.26 5.26 0 00-3.892-2.353l-.019-.005c.58-.657.933-1.523.933-2.473v-5.132a.624.624 0 00-.62-.629h-3.762c-1.617 0-2.932 1.335-2.932 2.975v2.787c0 .948.353 1.815.933 2.472l-.02.005A5.26 5.26 0 009.447 26.6a3.952 3.952 0 00-1.211-.409c.34-.476.54-1.06.54-1.692v-3.777a.624.624 0 00-.619-.629H5.387c-1.28 0-2.321 1.057-2.321 2.355v2.05c0 .633.201 1.217.541 1.694-1.917.318-3.386 2.01-3.386 4.044v1.862c0 .347.278.628.62.628h30.48c.342 0 .62-.281.62-.628v-1.862c0-2.034-1.469-3.726-3.386-4.044zm-24.25-3.744c0-.605.486-1.098 1.082-1.098h2.15v.766c0 .375-.301.68-.671.68h-2.56v-.348zm0 1.605h2.56c.237 0 .463-.044.671-.123v.569c0 .903-.724 1.639-1.615 1.639s-1.616-.736-1.616-1.64v-.445zm2.015 3.342l-.4.405-.399-.405h.8zm2.237 2.172v1.902H1.46v-1.233c0-1.41 1.018-2.583 2.347-2.803l1.676 1.7a.615.615 0 00.876 0l1.677-1.701c.296.049.58.146.846.287a5.388 5.388 0 00-.325 1.848zm7.524-5.344c-1.333 0-2.418-1.1-2.418-2.453v-.831h3.702c.41 0 .797-.107 1.134-.294v1.125c0 1.352-1.084 2.453-2.418 2.453zm1.08 1.257l-1.08 1.096L15 25.48h2.16zm-3.499-6.497c0-.947.76-1.718 1.694-1.718h3.143v1.266c0 .635-.508 1.15-1.134 1.15h-3.702v-.698zm8.704 12.486H9.796v-1.257h4.034c.342 0 .62-.281.62-.628a.624.624 0 00-.62-.629H9.841c.266-1.786 1.675-3.196 3.445-3.437l2.357 2.39a.613.613 0 00.876 0l2.357-2.39c1.967.268 3.49 1.98 3.49 4.05v1.901zm2.26-9.02c0-.606.485-1.099 1.082-1.099h2.149v.766c0 .375-.301.68-.671.68h-2.56v-.348zm0 1.604h2.56c.236 0 .462-.044.67-.123v.569c0 .903-.724 1.639-1.615 1.639-.89 0-1.616-.736-1.616-1.64v-.445zm2.014 3.342l-.399.405-.4-.405h.8zm-3.035 4.074v-1.902c0-.65-.115-1.272-.325-1.848.265-.142.55-.238.846-.287l1.677 1.701a.615.615 0 00.876 0l1.676-1.7c1.33.22 2.347 1.393 2.347 2.803v1.233h-7.097zM19.134 4.653a.613.613 0 00-.877 0l-3.04 3.085-1.314-1.334a.613.613 0 00-.876 0 .635.635 0 000 .89L14.78 9.07a.615.615 0 00.877 0l3.478-3.529a.635.635 0 000-.889z"/><path d="M18.614 1.092a.616.616 0 00-.818.318.632.632 0 00.314.83c1.796.813 2.957 2.627 2.957 4.622 0 2.79-2.236 5.058-4.986 5.058-2.749 0-4.986-2.269-4.986-5.058 0-1.985 1.153-3.795 2.936-4.612a.632.632 0 00.31-.832.616.616 0 00-.82-.314c-2.226 1.02-3.665 3.28-3.665 5.758 0 3.482 2.793 6.315 6.225 6.315 3.433 0 6.225-2.833 6.225-6.315 0-2.49-1.449-4.755-3.692-5.77z"/><path d="M16.103.547h-.022a.624.624 0 00-.62.628c0 .348.278.629.62.629h.019c.341 0 .618-.28.62-.626a.624.624 0 00-.617-.631zM16.519 29.14a.62.62 0 00-.438-.185.62.62 0 00-.438.184.638.638 0 000 .889.62.62 0 00.438.184.62.62 0 00.438-.184.638.638 0 000-.889z"/></symbol><symbol id="icon-mail"><path d="M16.68 0H2.323C1.042 0 0 1.009 0 2.25v9.5C0 12.991 1.042 14 2.323 14h14.354C17.958 14 19 12.991 19 11.75V2.253C19.004 1.013 17.962 0 16.68 0zm1.262 11.75c0 .674-.566 1.222-1.262 1.222H2.323c-.695 0-1.262-.548-1.262-1.222V2.253c0-.673.567-1.221 1.262-1.221h14.354c.695 0 1.262.548 1.262 1.221v9.497h.003z" fill="#00B2FF"/><path d="M11.983 6.882l4.646-4.035a.505.505 0 00.04-.727.546.546 0 00-.751-.038L9.51 7.651 8.26 6.57c-.004-.004-.008-.008-.008-.012a.78.78 0 00-.087-.072L3.078 2.078a.542.542 0 00-.75.042.502.502 0 00.043.727l4.702 4.07L2.39 11.16a.504.504 0 00-.023.727.541.541 0 00.75.027l4.754-4.305L9.16 8.724a.54.54 0 00.708-.004l1.325-1.15 4.725 4.348c.102.095.236.14.366.14.141 0 .279-.053.385-.16a.504.504 0 00-.02-.726l-4.666-4.29z" fill="#00B2FF"/></symbol><symbol id="icon-ok"><path d="M13.851 10.957c1.016 0 1.806-.836 1.787-1.746.019-.91-.752-1.764-1.768-1.764-.978 0-1.787.78-1.787 1.746 0 .965.79 1.764 1.768 1.764z" fill="#CDCDCD"/><path d="M13.701 0C6.441 0 .535 5.831.535 13c0 7.187 5.906 13 13.166 13 7.279 0 13.166-5.831 13.166-13C26.885 5.83 20.98 0 13.7 0zm.188 4.921c2.37 0 4.326 1.932 4.307 4.29 0 2.377-1.975 4.29-4.382 4.253-2.37-.037-4.27-1.95-4.27-4.271 0-2.359 1.938-4.272 4.345-4.272zm4.834 10.029c0 .037-.019.056-.019.093a1.213 1.213 0 01-.564.873c-.207.13-.433.26-.659.371a8.55 8.55 0 01-1.786.65c-.075.019-.075.019-.02.074l1.035 1.022 1.317 1.3c.62.613.451 1.634-.339 2.006-.131.074-.282.092-.432.13h-.245c-.019 0-.037 0-.037-.02-.301-.036-.546-.185-.771-.39l-2.276-2.246c-.057-.056-.057-.056-.113 0l-2.295 2.265c-.131.13-.263.223-.432.298-.113.055-.245.074-.358.092h-.244c-.038 0-.057-.018-.094-.018-.508-.093-.847-.372-.997-.854-.15-.483-.038-.91.32-1.263l.94-.929 1.392-1.374c.056-.056.056-.056-.019-.074-.019 0-.056-.019-.075-.019a8.182 8.182 0 01-2.351-.984c-.433-.279-.64-.687-.583-1.189.094-.928 1.147-1.43 1.937-.928.15.092.282.167.451.241a5.413 5.413 0 002.746.557c.47-.018.94-.111 1.411-.26.451-.148.846-.353 1.26-.575.677-.39 1.561-.075 1.825.65.037.11.056.204.075.315v.186z" fill="#CDCDCD"/></symbol><symbol id="icon-phone"><path d="M14.233 11.15c-.369-.383-.814-.588-1.286-.588-.468 0-.917.2-1.3.585l-1.203 1.196c-.099-.053-.198-.102-.293-.152a4.832 4.832 0 01-.377-.201c-1.126-.714-2.15-1.645-3.13-2.85-.476-.6-.796-1.105-1.028-1.618.312-.285.601-.581.883-.866l.32-.323c.798-.798.798-1.831 0-2.629l-1.04-1.037c-.117-.118-.24-.24-.353-.36A17.952 17.952 0 004.71 1.6c-.369-.365-.81-.559-1.274-.559-.464 0-.913.194-1.294.559l-.007.007L.84 2.91a2.778 2.778 0 00-.825 1.767c-.092 1.11.236 2.142.487 2.819.616 1.66 1.537 3.198 2.91 4.847a17.9 17.9 0 005.962 4.662c.875.414 2.043.904 3.348.987.08.004.163.008.24.008.878 0 1.617-.315 2.195-.942.004-.008.011-.012.015-.02.198-.239.426-.455.666-.687.163-.156.33-.319.494-.49.377-.391.575-.847.575-1.314 0-.471-.202-.924-.586-1.303l-2.089-2.094zm1.362 4c-.004 0-.004.005 0 0-.148.16-.3.305-.464.464a9.977 9.977 0 00-.734.76c-.384.41-.837.604-1.43.604-.058 0-.119 0-.176-.004-1.13-.072-2.18-.513-2.967-.889a16.898 16.898 0 01-5.616-4.391C2.911 10.132 2.043 8.689 1.47 7.139c-.354-.946-.483-1.683-.426-2.379.038-.444.21-.813.525-1.128l1.297-1.295c.187-.175.385-.27.579-.27.24 0 .433.144.555.266l.011.011c.233.217.453.44.685.68.118.122.24.243.362.369L6.095 4.43c.404.403.404.775 0 1.178-.11.11-.217.22-.327.326-.32.327-.624.63-.955.927-.007.008-.015.012-.019.02-.327.326-.266.645-.198.862l.012.034c.27.653.65 1.269 1.229 2.002l.003.004c1.05 1.291 2.158 2.298 3.379 3.07.156.098.316.178.468.254.137.068.266.133.377.201.015.008.03.02.045.027.13.064.251.095.377.095.316 0 .513-.198.578-.262l1.301-1.3c.13-.129.335-.285.575-.285.236 0 .43.149.548.278l.007.007 2.097 2.094c.391.387.391.786.003 1.189zM9.728 4.282a4.827 4.827 0 012.626 1.36 4.84 4.84 0 011.362 2.621.51.51 0 00.506.426c.03 0 .057-.004.087-.008a.513.513 0 00.422-.593 5.856 5.856 0 00-1.647-3.172 5.871 5.871 0 00-3.177-1.645.516.516 0 00-.593.418.507.507 0 00.414.593zM17.992 7.94a9.635 9.635 0 00-2.713-5.223 9.659 9.659 0 00-5.23-2.71.512.512 0 10-.168 1.011c1.773.3 3.39 1.14 4.676 2.42a8.601 8.601 0 012.423 4.67.51.51 0 00.506.425c.03 0 .057-.004.088-.008a.503.503 0 00.418-.585z" fill="#00B2FF"/></symbol><symbol id="icon-stopwatch"><path d="M3.188 11.662L1.702 10.19a2.038 2.038 0 010-2.9c.807-.8 2.122-.8 2.929 0l1.587 1.572a14.58 14.58 0 015.52-2.311V4.51h-1.38a.687.687 0 01-.691-.683V2.051C9.667.92 10.596 0 11.738 0h5.524c1.142 0 2.071.92 2.071 2.05v1.778a.687.687 0 01-.69.684h-1.381V6.55a14.578 14.578 0 015.52 2.31l1.587-1.57c.807-.8 2.121-.8 2.93 0a2.04 2.04 0 010 2.9l-1.487 1.471A14.252 14.252 0 0129 20.644C29 28.56 22.495 35 14.5 35S0 28.56 0 20.645c0-3.277 1.128-6.442 3.188-8.983zm.467-3.405a.696.696 0 00-.977 0 .68.68 0 000 .967l1.427 1.412c.322-.327.659-.638 1.01-.934l-1.46-1.445zm14.297-6.206a.688.688 0 00-.69-.684h-5.524c-.38 0-.69.307-.69.684v1.094h6.904V2.05zM13.12 4.51v1.843a15.006 15.006 0 012.762 0V4.512H13.12zm13.203 3.746a.696.696 0 00-.977 0l-1.46 1.445c.351.296.688.607 1.01.934l1.427-1.412a.68.68 0 000-.967zM14.5 33.633c7.234 0 13.119-5.827 13.119-12.989 0-3.159-1.158-6.202-3.262-8.57A13.177 13.177 0 0014.5 7.656a13.18 13.18 0 00-7.936 2.645 13.19 13.19 0 00-1.921 1.771 12.898 12.898 0 00-3.262 8.572c0 7.161 5.885 12.988 13.119 12.988z"/><path d="M14.5 22.695a2.063 2.063 0 01-2.071-2.05c0-.892.577-1.651 1.38-1.934V13.81c0-.378.31-.684.691-.684.382 0 .69.306.69.684v4.902a2.056 2.056 0 011.382 1.934c0 1.13-.93 2.05-2.072 2.05zm0-2.734c-.38 0-.69.306-.69.684 0 .377.31.683.69.683.38 0 .69-.306.69-.683a.688.688 0 00-.69-.684z"/><path d="M7.145 13.433a.54.54 0 01.033-.037l.04-.037a10.417 10.417 0 014.353-2.55.682.682 0 11.391 1.311 9.028 9.028 0 00-3.298 1.78l.466.46c.27.268.27.7 0 .968a.692.692 0 01-.977 0l-.467-.462A8.758 8.758 0 005.55 19.96h.664c.382 0 .69.306.69.684a.686.686 0 01-.69.683H5.55a8.757 8.757 0 002.136 5.096l.467-.463a.696.696 0 01.977 0c.27.267.27.7 0 .967l-.467.462a8.941 8.941 0 005.147 2.115v-.657c0-.378.309-.684.69-.684.381 0 .69.306.69.684v.657a8.939 8.939 0 005.147-2.115l-.467-.462a.679.679 0 010-.967.696.696 0 01.977 0l.467.463a8.758 8.758 0 002.136-5.096h-.664a.687.687 0 01-.69-.683c0-.378.308-.684.69-.684h.664a8.758 8.758 0 00-2.136-5.095l-.467.462a.692.692 0 01-.977 0 .68.68 0 010-.967l.466-.461a9.024 9.024 0 00-3.298-1.78.682.682 0 01-.466-.85.692.692 0 01.857-.462 10.414 10.414 0 014.351 2.55.672.672 0 01.042.037l.033.037a10.132 10.132 0 013.002 7.213c0 2.718-1.066 5.277-3.002 7.211a.555.555 0 01-.033.037.38.38 0 01-.037.033 10.34 10.34 0 01-7.285 2.972c-2.746 0-5.33-1.055-7.284-2.971l-.038-.034c-.012-.011-.022-.024-.033-.036a10.132 10.132 0 01-3.002-7.212 10.13 10.13 0 013.002-7.212z"/><path d="M14.5 11.758a.687.687 0 01-.69-.684c0-.377.309-.683.69-.683.381 0 .69.306.69.683a.688.688 0 01-.69.684z"/></symbol><symbol id="icon-tag"><path d="M11.07 8.585a.689.689 0 00-.483-.2.689.689 0 00-.483.2.69.69 0 00-.2.483.685.685 0 001.167.483.69.69 0 00.2-.483.689.689 0 00-.2-.483z"/><path d="M34.8 2.859l-.845-.847.845-.845A.684.684 0 0033.833.2l-.844.845-.833-.834a.683.683 0 00-.484-.2L20.102.003H20.1c-.913 0-1.772.356-2.418 1.002L11.908 6.78a.684.684 0 00.967.967l5.774-5.774A2.04 2.04 0 0120.1 1.37h.002l11.286.007.634.634-2.537 2.537a2.805 2.805 0 00-3.419.422 2.783 2.783 0 00-.82 1.98c0 .748.291 1.452.82 1.98a2.792 2.792 0 001.98.82c.717 0 1.434-.273 1.98-.82a2.806 2.806 0 00.425-3.415l2.537-2.537.645.646-.007 11.273a2.04 2.04 0 01-.601 1.451L16.344 33.033a2.04 2.04 0 01-1.452.601 2.04 2.04 0 01-1.452-.601L1.97 21.559a2.04 2.04 0 01-.602-1.452c0-.548.214-1.064.602-1.452l7.368-7.37a.684.684 0 00-.966-.966L1 17.689a3.399 3.399 0 00-1 2.417c0 .914.356 1.773 1.002 2.42L12.473 34a3.41 3.41 0 002.419 1 3.41 3.41 0 002.419-1l16.68-16.684a3.4 3.4 0 001.003-2.417L35 3.342a.683.683 0 00-.2-.483zm-5.74 5.106c-.271.27-.631.42-1.014.42s-.742-.15-1.013-.42a1.435 1.435 0 011.013-2.447c.139 0 .277.02.41.06l-.789.789a.684.684 0 00.967.967l.787-.787a1.434 1.434 0 01-.361 1.418z"/><path d="M29.2 13.764l-7.966-7.967a2.71 2.71 0 00-3.828 0L4.8 18.406a2.69 2.69 0 00-.793 1.914c0 .723.282 1.403.793 1.914l7.967 7.968c.511.51 1.19.793 1.914.793.723 0 1.402-.282 1.913-.793L29.2 17.592a2.69 2.69 0 00.793-1.913 2.69 2.69 0 00-.793-1.915zm-.966 2.862L15.627 29.235a1.33 1.33 0 01-.947.392 1.33 1.33 0 01-.947-.392l-7.967-7.968a1.33 1.33 0 01-.392-.947c0-.358.139-.695.392-.948L18.373 6.764c.261-.262.604-.392.947-.392.343 0 .686.13.947.392l7.967 7.967c.253.253.392.59.392.948 0 .357-.14.694-.392.947z"/><path d="M22.29 13.677a.684.684 0 00-.966-.967l-.394.394c-1.051-.65-2.4-.563-3.252.29a2.48 2.48 0 00-.716 1.9 2.876 2.876 0 00.853 1.892c.55.55.611 1.384.137 1.859-.475.474-1.309.413-1.859-.137s-.61-1.384-.136-1.859a.684.684 0 00-.967-.967c-.853.853-.94 2.202-.29 3.253l-.468.467a.684.684 0 00.968.967l.467-.467c.46.283.975.427 1.482.427.652 0 1.29-.238 1.77-.717 1.007-1.008.946-2.709-.137-3.792a1.512 1.512 0 01-.454-.991 1.13 1.13 0 01.317-.868c.474-.475 1.308-.413 1.858.137s.611 1.384.137 1.858a.684.684 0 00.966.967c.853-.852.94-2.201.29-3.252l.394-.394zm-6.918 11.335L11.86 21.5a.684.684 0 00-.967.967l3.511 3.512a.682.682 0 00.967 0 .684.684 0 000-.967zm-5.384-5.385a.688.688 0 00-.483-.2.69.69 0 00-.483.2.69.69 0 00-.2.484.684.684 0 00.683.683.688.688 0 00.684-.683.689.689 0 00-.2-.484z"/></symbol><symbol id="icon-vk"><path d="M19.475 15.127c-1.109-1.024-1.188-1.024-.238-2.206 1.188-1.497 2.773-3.388 1.347-3.388H17.97c-.475 0-.554.316-.713.71-.633 1.496-1.9 3.466-2.376 3.15-.475-.314-.237-1.496-.237-3.387a.61.61 0 00-.159-.63c-.158-.158-.396-.315-.633-.315-.396-.079-.792-.158-1.188-.158-1.505 0-2.535.63-1.98.71 1.03.157.95 2.363.712 3.308-.396 1.655-1.98-1.26-2.693-2.757-.079-.394-.396-.63-.792-.63H5.852c-.317 0-.554.078-.554.315 0 .393 1.98 4.254 3.801 6.224 1.822 1.89 3.644 1.733 4.911 1.733a.607.607 0 00.396-.158.6.6 0 00.158-.394c0-1.26.476-1.89 1.347-1.024.95.945 1.188 1.576 2.376 1.576h2.138c.555 0 .713-.158.713-.394.08-.552-.871-1.576-1.663-2.285zM13.852.001c7.366.157 13.226 6.066 13.147 13.235-.079 7.17-6.178 12.842-13.543 12.763C6.01 25.92.07 20.17.07 13 .15 5.753 6.327-.077 13.852.002z" fill="#CDCDCD"/></symbol></svg>